<?xml version="1.0" encoding="UTF-8" standalone="no"?>
<!-- Created with Inkscape (http://www.inkscape.org/) -->

<svg
   xmlns:dc="http://purl.org/dc/elements/1.1/"
   xmlns:cc="http://creativecommons.org/ns#"
   xmlns:rdf="http://www.w3.org/1999/02/22-rdf-syntax-ns#"
   xmlns:svg="http://www.w3.org/2000/svg"
   xmlns="http://www.w3.org/2000/svg"
   xmlns:sodipodi="http://sodipodi.sourceforge.net/DTD/sodipodi-0.dtd"
   xmlns:inkscape="http://www.inkscape.org/namespaces/inkscape"
   version="1.1"
   id="svg4076"
   width="144"
   height="144"
   viewBox="0 0 144 144"
   sodipodi:docname="logo.svg"
   inkscape:version="0.92.2 5c3e80d, 2017-08-06">
  <metadata
     id="metadata4082">
    <rdf:RDF>
      <cc:Work
         rdf:about="">
        <dc:format>image/svg+xml</dc:format>
        <dc:type
           rdf:resource="http://purl.org/dc/dcmitype/StillImage" />
        <dc:title />
      </cc:Work>
    </rdf:RDF>
  </metadata>
  <defs
     id="defs4080" />
  <sodipodi:namedview
     pagecolor="#ffffff"
     bordercolor="#666666"
     borderopacity="1"
     objecttolerance="10"
     gridtolerance="10"
     guidetolerance="10"
     inkscape:pageopacity="0"
     inkscape:pageshadow="2"
     inkscape:window-width="1600"
     inkscape:window-height="835"
     id="namedview4078"
     showgrid="false"
     inkscape:zoom="6.1675425"
     inkscape:cx="24.908247"
     inkscape:cy="69.56228"
     inkscape:window-x="0"
     inkscape:window-y="0"
     inkscape:window-maximized="1"
     inkscape:current-layer="svg4076" />
  <path
     style="fill:#06b2e3;fill-opacity:1;stroke-width:1"
     d="M 36.506746,105.91747 C 27.333861,104.09203 18.92111,96.047461 16.182098,86.482341 15.059152,82.56081 14.795849,77.324493 14.995512,62.884662 L 15.252114,44.326863 27.508091,37.297952 C 39.756938,30.273129 39.76585,30.269903 42.828062,31.752117 l 3.063994,1.483078 V 52.75439 c 0,21.647907 0.439006,23.83364 5.818606,28.969865 5.462778,5.215646 9.391643,6.478856 10.775953,3.464706 0.423086,-0.92121 0.998782,-11.114709 1.279326,-22.652215 L 64.27602,41.559461 74.338527,35.914655 c 9.968254,-5.591932 10.089674,-5.630544 12.963054,-4.12207 l 2.90054,1.522737 v 18.94375 c 0,29.589579 -1.15271,31.766289 -23.746985,44.842229 -16.509622,9.554579 -20.433455,10.709669 -29.94839,8.816169 z m 11.214332,-1.89484 c 5.958069,-1.39403 29.007118,-14.835549 33.631673,-19.612989 6.11493,-6.317087 6.96384,-10.162801 6.96384,-31.547119 0,-23.064228 0.34661,-22.674529 -13.355919,-15.016048 l -9.270501,5.181373 -0.05321,19.28599 c -0.0345,12.505195 -0.45547,20.463771 -1.197313,22.635844 -1.043934,3.05658 -1.451982,3.3403 -4.660724,3.24068 -5.031774,-0.15622 -10.482609,-4.32511 -13.384269,-10.23652 -2.317069,-4.720451 -2.388133,-5.436638 -2.388133,-24.067673 0,-24.790731 0.771971,-24.05567 -15.500466,-14.759355 l -11.839791,6.763979 0.01038,16.897415 c 0.01248,20.333691 0.346977,22.693234 4.12251,29.080534 3.435233,5.8116 8.966818,10.065359 15.35631,11.808919 5.636469,1.53806 6.3725,1.56002 11.565616,0.34497 z m -12.550649,-3.2503 C 29.744815,98.80892 25.003768,94.464911 22.067331,88.766531 l -2.612458,-5.06967 0.255539,-18.231101 0.255539,-18.231097 9.345121,-5.591337 c 5.139814,-3.075235 9.887636,-5.379988 10.550714,-5.121673 0.908812,0.354046 1.277259,5.135716 1.496706,19.424061 0.245679,15.996208 0.558359,19.49956 2.003485,22.447496 2.454768,5.007521 7.790523,10.072971 12.557199,11.921061 2.262915,0.87735 4.114392,2.1608 4.114392,2.85211 0,1.78759 -5.540853,5.845599 -10.318021,7.556699 -4.967378,1.77926 -9.720036,1.79534 -14.545118,0.0493 z m 17.888972,-3.865729 c 2.280225,-1.35663 4.145865,-2.79261 4.145865,-3.19108 0,-0.39846 -1.426223,-1.24805 -3.169383,-1.88797 C 49.996262,90.344601 44.59024,85.026211 41.882329,79.871024 39.96574,76.222315 39.730632,74.153544 39.29763,57.127692 l -0.47633,-18.72952 -8.720599,5.179458 -8.720599,5.179458 0.0092,16.89992 c 0.0085,15.785514 0.157331,17.22287 2.255466,21.797443 5.280925,11.514019 18.700747,15.826359 29.414622,9.45215 z m 14.044922,-9.08561 c -0.320465,-0.52641 -0.239441,-1.49547 0.180052,-2.15348 0.419493,-0.65801 0.974838,-10.232505 1.234099,-21.276658 l 0.471383,-20.08028 7.273338,-4.163811 c 4.000344,-2.290095 7.712486,-3.888276 8.249206,-3.551514 1.36713,0.857777 1.28156,33.218614 -0.10021,37.900693 -1.41958,4.81014 -5.775673,10.05728 -10.290744,12.39572 -4.03927,2.09202 -6.139939,2.37022 -7.017124,0.92933 z m 8.95629,-4.742556 c 6.535938,-5.226594 7.034958,-7.057417 7.379838,-27.075572 l 0.30907,-17.940145 -6.672756,3.905623 -6.672756,3.905625 v 17.390698 c 0,9.564884 -0.400686,18.809048 -0.890412,20.542587 -0.837696,2.96529 -0.767927,3.11513 1.178459,2.53087 1.137878,-0.34157 3.55373,-1.80842 5.368557,-3.259686 z"
     id="path4361"
     inkscape:connector-curvature="0" />
  <path
     style="fill:#000000;stroke-width:0.99999994"
     d=""
     id="path4086"
     inkscape:connector-curvature="0" />
  <path
     style="fill:#06b2e3;fill-opacity:1;stroke-width:1"
     d="m 40.719434,104.6927 c -1.393365,-0.22095 -4.646813,-1.07224 -6.247751,-1.63478 C 29.031519,101.14635 24.275966,97.302438 21.168112,92.304643 19.082253,88.950337 18.065648,86.422028 17.543631,83.290517 16.938841,79.662464 16.86455,77.52886 16.787115,61.563873 l -0.07589,-15.646427 9.457209,-5.38276 c 10.017399,-5.701603 11.915868,-6.696767 13.570759,-7.113694 1.899014,-0.478432 2.846929,0.07822 3.421374,2.009156 0.625533,2.102671 0.677638,3.335085 0.813565,19.242812 0.08441,9.878582 0.19943,16.039253 0.314818,16.86247 0.306443,2.186243 0.762336,3.709569 1.70146,5.68528 2.957935,6.222845 7.730293,10.244126 12.987801,10.943769 1.547499,0.205935 3.126503,0.09825 3.82032,-0.260538 0.522711,-0.270304 0.973931,-0.960778 1.425487,-2.181337 1.089698,-2.945457 1.331341,-7.427461 1.458381,-27.050227 l 0.101123,-15.619417 4.783105,-2.677948 c 10.970253,-6.141988 12.574879,-6.944269 14.24875,-7.124086 0.999797,-0.107404 1.767015,0.295706 2.254257,1.184429 1.024921,1.86944 1.234709,5.610372 1.121274,19.994396 -0.09956,12.624148 -0.319635,16.359801 -1.179684,20.024183 -1.447846,6.168784 -4.706402,9.970109 -13.445023,15.684524 -7.865386,5.143384 -18.962302,11.262572 -23.834453,13.143072 -2.820687,1.0887 -6.959261,1.73673 -9.012314,1.41117 z m 5.850601,-2.99959 c 5.816617,-1.27406 13.457548,-6.115673 13.457548,-8.527269 0,-0.614333 -1.016547,-1.456634 -2.756365,-2.283899 C 53.661005,89.165323 52.863089,88.724555 51.431779,87.656239 48.13632,85.196545 45.173798,81.790569 43.615147,78.669551 42.089203,75.61403 41.814149,73.24513 41.546694,60.855039 41.11023,40.635537 40.847362,36.877018 39.842732,36.491505 c -0.907946,-0.348411 -7.16971,2.967858 -17.858098,9.45776 l -2.086487,1.266897 -0.259079,18.239851 -0.25908,18.239852 1.748973,3.358715 c 0.961936,1.847293 2.058099,3.817284 2.43592,4.377757 3.891085,5.772184 9.525451,9.513863 15.807631,10.497553 1.407872,0.22045 5.764361,0.0771 7.197523,-0.23678 z M 70.329887,88.553868 c 1.460498,-0.376896 4.69531,-2.011028 6.154818,-3.109232 2.463993,-1.854026 5.002588,-4.756811 6.48655,-7.417117 2.150774,-3.855702 2.431103,-6.660876 2.431103,-24.327394 0,-8.59936 -0.05793,-12.390403 -0.211827,-13.862896 -0.243505,-2.329839 -0.444597,-3.22487 -0.750969,-3.342436 -0.356122,-0.136657 -2.557214,0.681773 -4.672167,1.73725 -1.092067,0.545001 -3.966267,2.119233 -6.387109,3.498293 l -4.401533,2.507382 -0.09584,2.623395 c -0.05271,1.442867 -0.13441,4.374497 -0.181557,6.514733 -0.501731,22.776067 -0.905331,30.852779 -1.628189,32.582824 -0.626159,1.498608 0.209281,2.817782 1.797464,2.838231 0.271089,0.0035 0.927752,-0.105875 1.459252,-0.243033 z"
     id="path3943"
     inkscape:connector-curvature="0" />
</svg>
